<svg xmlns="http://www.w3.org/2000/svg" width="351" height="2" viewBox="0 0 351 2" fill="none">
<path d="M0 2H0.991525V0H0V2ZM4.95763 2H6.94068V0H4.95763V2ZM10.9068 2H12.8898V0H10.9068V2ZM16.8559 2H18.839V0H16.8559V2ZM22.8051 2H24.7881V0H22.8051V2ZM28.7542 2H30.7373V0H28.7542V2ZM34.7034 2H36.6864V0H34.7034V2ZM40.6525 2H42.6356V0H40.6525V2ZM46.6017 2H48.5848V0H46.6017V2ZM52.5509 2H54.5339V0H52.5509V2ZM58.5 2H60.4831V0H58.5V2ZM64.4492 2H66.4322V0H64.4492V2ZM70.3983 2H72.3814V0H70.3983V2ZM76.3475 2H78.3305V0H76.3475V2ZM82.2966 2H84.2797V0H82.2966V2ZM88.2458 2H90.2288V0H88.2458V2ZM94.1949 2H96.178V0H94.1949V2ZM100.144 2H102.127V0H100.144V2ZM106.093 2H108.076V0H106.093V2ZM112.042 2H114.025V0H112.042V2ZM117.992 2H119.975V0H117.992V2ZM123.941 2H125.924V0H123.941V2ZM129.89 2H131.873V0H129.89V2ZM135.839 2H137.822V0H135.839V2ZM141.788 2H143.771V0H141.788V2ZM147.737 2H149.72V0H147.737V2ZM153.686 2H155.669V0H153.686V2ZM159.636 2H161.619V0H159.636V2ZM165.585 2H167.568V0H165.585V2ZM171.534 2H173.517V0H171.534V2ZM177.483 2H179.466V0H177.483V2ZM183.432 2H185.415V0H183.432V2ZM189.381 2H191.364V0H189.381V2ZM195.33 2H197.313V0H195.33V2ZM201.28 2H203.263V0H201.28V2ZM207.229 2H209.212V0H207.229V2ZM213.178 2H215.161V0H213.178V2ZM219.127 2H221.11V0H219.127V2ZM225.076 2H227.059V0H225.076V2ZM231.025 2H233.008V0H231.025V2ZM236.974 2H238.957V0H236.974V2ZM242.924 2H244.907V0H242.924V2ZM248.873 2H250.856V0H248.873V2ZM254.822 2H256.805V0H254.822V2ZM260.771 2H262.754V0H260.771V2ZM266.72 2H268.703V0H266.72V2ZM272.669 2H274.652V0H272.669V2ZM278.618 2H280.602V0H278.618V2ZM284.568 2H286.551V0H284.568V2ZM290.517 2H292.5V0H290.517V2ZM296.466 2H298.449V0H296.466V2ZM302.415 2H304.398V0H302.415V2ZM308.364 2H310.347V0H308.364V2ZM314.313 2H316.296V0H314.313V2ZM320.263 2H322.246V0H320.263V2ZM326.212 2H328.195V0H326.212V2ZM332.161 2H334.144V0H332.161V2ZM338.11 2H340.093V0H338.11V2ZM344.059 2H346.042V0H344.059V2ZM350.008 2H351V0H350.008V2Z" fill="white"/>
</svg>